<svg data-v-423bf9ae="" xmlns="http://www.w3.org/2000/svg" viewBox="0 0 639 90" class="iconLeft"><!----><!----><!----><g data-v-423bf9ae="" id="6effed23-a11f-4757-b507-59a128f2df0f" fill="#08403F" transform="matrix(4.758128958864339,0,0,4.758128958864339,107.81124598532261,-4.936560133066742)"><path d="M4.27 4.19C2.18 4.19 0.74 5.28 0.74 7.03C0.74 10.64 6.45 8.88 6.45 11.28C6.45 12.25 5.57 12.88 4.30 12.88C2.84 12.88 2.00 12.07 1.99 10.96L0.46 10.96C0.52 12.85 1.95 14.13 4.23 14.13C6.45 14.13 8.01 13.02 8.01 11.23C8.01 7.52 2.30 9.35 2.30 6.94C2.30 6.01 3.09 5.43 4.23 5.43C5.45 5.43 6.23 6.10 6.27 7.22L7.76 7.22C7.71 5.36 6.29 4.19 4.27 4.19ZM13.01 6.99C12.05 6.99 11.28 7.41 10.84 8.15L10.84 4.31L9.41 4.31L9.41 14L10.84 14L10.84 9.97C10.84 8.86 11.52 8.13 12.59 8.13C13.62 8.13 14.29 8.86 14.29 9.97L14.29 14L15.74 14L15.74 9.77C15.74 8.11 14.59 6.99 13.01 6.99ZM20.69 6.99C18.56 6.99 17.01 8.48 17.01 10.56C17.01 12.63 18.56 14.13 20.69 14.13C22.82 14.13 24.36 12.63 24.36 10.56C24.36 8.48 22.82 6.99 20.69 6.99ZM20.68 8.23C21.97 8.23 22.89 9.21 22.89 10.56C22.89 11.91 21.97 12.88 20.68 12.88C19.40 12.88 18.48 11.91 18.48 10.56C18.48 9.21 19.40 8.23 20.68 8.23ZM29.67 6.99C28.63 6.99 27.75 7.41 27.15 8.11L27.15 7.11L25.72 7.11L25.72 16.80L27.15 16.80L27.15 13.01C27.75 13.71 28.63 14.13 29.67 14.13C31.61 14.13 33.03 12.63 33.03 10.56C33.03 8.48 31.61 6.99 29.67 6.99ZM29.36 12.88C28.07 12.88 27.15 11.91 27.15 10.56C27.15 9.21 28.07 8.23 29.36 8.23C30.63 8.23 31.56 9.21 31.56 10.56C31.56 11.91 30.63 12.88 29.36 12.88ZM44.83 5.67L44.83 4.31L38.37 4.31L38.37 14L39.90 14L39.90 9.88L44.41 9.88L44.41 8.58L39.90 8.58L39.90 5.67ZM47.60 8.72L47.60 7.11L46.17 7.11L46.17 14L47.60 14L47.60 10.60C47.60 9.18 48.59 8.34 50.19 8.34L50.19 6.93C48.97 6.93 48.06 7.59 47.60 8.72ZM54.35 6.99C52.22 6.99 50.67 8.48 50.67 10.56C50.67 12.63 52.22 14.13 54.35 14.13C56.48 14.13 58.02 12.63 58.02 10.56C58.02 8.48 56.48 6.99 54.35 6.99ZM54.33 8.23C55.62 8.23 56.55 9.21 56.55 10.56C56.55 11.91 55.62 12.88 54.33 12.88C53.06 12.88 52.14 11.91 52.14 10.56C52.14 9.21 53.06 8.23 54.33 8.23ZM67.07 6.99C66.07 6.99 65.27 7.48 64.88 8.27C64.51 7.46 63.77 6.99 62.80 6.99C61.94 6.99 61.21 7.36 60.80 8.04L60.80 7.11L59.37 7.11L59.37 14L60.80 14L60.80 9.67C60.80 8.74 61.36 8.13 62.26 8.13C63.17 8.13 63.70 8.74 63.70 9.67L63.70 14L65.14 14L65.14 9.67C65.14 8.74 65.70 8.13 66.60 8.13C67.49 8.13 68.04 8.74 68.04 9.67L68.04 14L69.47 14L69.47 9.49C69.47 7.98 68.49 6.99 67.07 6.99ZM81.06 4.31L81.06 8.51L76.68 8.51L76.68 4.31L75.15 4.31L75.15 14L76.68 14L76.68 9.87L81.06 9.87L81.06 14L82.59 14L82.59 4.31ZM87.77 6.99C85.64 6.99 84.08 8.48 84.08 10.56C84.08 12.63 85.64 14.13 87.77 14.13C89.89 14.13 91.43 12.63 91.43 10.56C91.43 8.48 89.89 6.99 87.77 6.99ZM87.75 8.23C89.04 8.23 89.96 9.21 89.96 10.56C89.96 11.91 89.04 12.88 87.75 12.88C86.48 12.88 85.55 11.91 85.55 10.56C85.55 9.21 86.48 8.23 87.75 8.23ZM100.49 6.99C99.48 6.99 98.69 7.48 98.29 8.27C97.93 7.46 97.19 6.99 96.22 6.99C95.35 6.99 94.63 7.36 94.22 8.04L94.22 7.11L92.79 7.11L92.79 14L94.22 14L94.22 9.67C94.22 8.74 94.78 8.13 95.68 8.13C96.59 8.13 97.12 8.74 97.12 9.67L97.12 14L98.56 14L98.56 9.67C98.56 8.74 99.12 8.13 100.02 8.13C100.91 8.13 101.46 8.74 101.46 9.67L101.46 14L102.89 14L102.89 9.49C102.89 7.98 101.91 6.99 100.49 6.99ZM111.52 10.57C111.51 8.48 109.98 6.99 107.86 6.99C105.73 6.99 104.17 8.48 104.17 10.56C104.17 12.63 105.73 14.13 107.86 14.13C109.55 14.13 111.02 13.03 111.41 11.51L109.96 11.51C109.69 12.33 108.85 12.95 107.87 12.95C106.68 12.95 105.77 12.15 105.59 11.00L111.48 11.00C111.51 10.86 111.52 10.71 111.52 10.57ZM107.87 8.16C109.00 8.16 109.91 8.88 110.15 9.90L105.63 9.90C105.88 8.86 106.75 8.16 107.87 8.16Z"></path></g><defs data-v-423bf9ae=""><linearGradient data-v-423bf9ae="" gradientTransform="rotate(25)" id="eb340d41-4fb6-444b-b073-1b5c5f84dd0a" x1="0%" y1="0%" x2="100%" y2="0%"><stop data-v-423bf9ae="" offset="0%" style="stop-color: rgb(65, 226, 150); stop-opacity: 1;"></stop><stop data-v-423bf9ae="" offset="100%" style="stop-color: rgb(0, 196, 238); stop-opacity: 1;"></stop></linearGradient></defs><g data-v-423bf9ae="" id="8b26900a-ef07-4902-ac53-36452b2470d4" transform="matrix(1.1538461538461537,0,0,1.1538461538461537,-12.692307692307686,-12.692307692307686)" stroke="none" fill="url(#eb340d41-4fb6-444b-b073-1b5c5f84dd0a)"><path d="M37.4 11H21.6C15.7 11 11 15.7 11 21.6v15.9C11 43.3 15.7 48 21.6 48h15.9C43.3 48 48 43.3 48 37.4V21.6C48 15.7 43.3 11 37.4 11zM40 37.4c0 1.4-1.1 2.6-2.6 2.6H21.6c-1.4 0-2.6-1.1-2.6-2.6V21.6c0-1.4 1.1-2.6 2.6-2.6h15.9c1.4 0 2.6 1.1 2.6 2.6v15.8zM62.6 48h15.9C84.3 48 89 43.3 89 37.4V21.6C89 15.7 84.3 11 78.4 11H62.6C56.7 11 52 15.7 52 21.6v15.9C52 43.3 56.7 48 62.6 48zM60 21.6c0-1.4 1.1-2.6 2.6-2.6h15.9c1.4 0 2.6 1.1 2.6 2.6v15.9c0 1.4-1.1 2.6-2.6 2.6H62.6c-1.4 0-2.6-1.1-2.6-2.6V21.6zM37.4 52H21.6C15.7 52 11 56.7 11 62.6v15.9C11 84.3 15.7 89 21.6 89h15.9C43.3 89 48 84.3 48 78.4V62.6C48 56.7 43.3 52 37.4 52zM40 78.4c0 1.4-1.1 2.6-2.6 2.6H21.6c-1.4 0-2.6-1.1-2.6-2.6V62.6c0-1.4 1.1-2.6 2.6-2.6h15.9c1.4 0 2.6 1.1 2.6 2.6v15.8zM70.5 89C80.7 89 89 80.7 89 70.5S80.7 52 70.5 52 52 60.3 52 70.5 60.3 89 70.5 89zm0-29C76.3 60 81 64.7 81 70.5S76.3 81 70.5 81 60 76.3 60 70.5 64.7 60 70.5 60z"></path></g><!----></svg>